<svg width="15" height="14" viewBox="0 0 15 14" fill="none" xmlns="http://www.w3.org/2000/svg">
<path d="M15 3.59375C15 2.83203 14.3555 2.1875 13.5938 2.1875H11.0156L10.6348 1.25C10.4297 0.693359 9.90234 0.3125 9.31641 0.3125H5.6543C5.06836 0.3125 4.54102 0.693359 4.33594 1.25L3.98438 2.1875H1.40625C0.615234 2.1875 0 2.83203 0 3.59375V12.0312C0 12.8223 0.615234 13.4375 1.40625 13.4375H13.5938C14.3555 13.4375 15 12.8223 15 12.0312V3.59375ZM11.0156 7.8125C11.0156 9.77539 9.43359 11.3281 7.5 11.3281C5.53711 11.3281 3.98438 9.77539 3.98438 7.8125C3.98438 5.87891 5.53711 4.29688 7.5 4.29688C9.43359 4.29688 11.0156 5.87891 11.0156 7.8125ZM10.0781 7.8125C10.0781 6.40625 8.90625 5.23438 7.5 5.23438C6.06445 5.23438 4.92188 6.40625 4.92188 7.8125C4.92188 9.24805 6.06445 10.3906 7.5 10.3906C8.90625 10.3906 10.0781 9.24805 10.0781 7.8125Z" fill="white"/>
</svg>
