<svg width="12" height="13" fill="none" xmlns="http://www.w3.org/2000/svg"><path fill-rule="evenodd" clip-rule="evenodd" d="M7.75 7H6.583V5.833a.583.583 0 1 0-1.166 0v1.75c0 .323.261.584.583.584h1.75A.583.583 0 1 0 7.75 7ZM6 11.521a3.942 3.942 0 0 1-3.938-3.938A3.942 3.942 0 0 1 6 3.647a3.942 3.942 0 0 1 3.938 3.938A3.942 3.942 0 0 1 6 11.52Zm.576-9.154c.002-.012.007-.021.007-.034V1.75h.584a.583.583 0 1 0 0-1.167H4.833a.583.583 0 1 0 0 1.167h.584v.583c0 .013.006.022.007.034A5.256 5.256 0 0 0 .75 7.583 5.256 5.256 0 0 0 6 12.834a5.256 5.256 0 0 0 5.25-5.25c0-2.7-2.05-4.928-4.674-5.216Z" fill="#373737"/></svg>