<svg width="12" height="13" fill="none" xmlns="http://www.w3.org/2000/svg"><path fill-rule="evenodd" clip-rule="evenodd" d="M3.084 6.416a.584.584 0 1 1 1.167 0 .584.584 0 0 1-1.167 0ZM6 5.833A.584.584 0 1 0 6 7a.584.584 0 0 0 0-1.167Zm2.334 0a.584.584 0 1 0 0 1.167.584.584 0 0 0 0-1.167Zm2.274 1.339C10.312 9.07 8.782 10.644 6.887 11a4.668 4.668 0 0 1-2.694-.284 1.876 1.876 0 0 0-.73-.153c-.111 0-.221.01-.329.032l-1.64.328.328-1.644a1.798 1.798 0 0 0-.12-1.055 4.673 4.673 0 0 1-.285-2.694c.355-1.895 1.93-3.425 3.828-3.72 1.51-.236 2.988.24 4.055 1.306 1.067 1.067 1.543 2.546 1.308 4.056Zm-.483-4.88C8.792.959 6.95.365 5.065.656 2.687 1.026.715 2.943.27 5.315a5.838 5.838 0 0 0 .357 3.363c.056.135.074.26.052.373l-.5 2.501a.582.582 0 0 0 .686.687l2.498-.5a.671.671 0 0 1 .375.051 5.845 5.845 0 0 0 3.363.356c2.373-.445 4.289-2.416 4.66-4.795.293-1.882-.303-3.726-1.636-5.06Z" fill="#373737"/></svg>