<svg width="23" height="23" fill="none" xmlns="http://www.w3.org/2000/svg"><path d="M4.876 13.295l-.766 2.858-2.8.059A11.019 11.019 0 011.23 5.94l2.491.457 1.093 2.476a6.565 6.565 0 00.062 4.42v.002z" fill="#FBBB00"/><path d="M21.808 8.945a11.001 11.001 0 01-3.92 10.633l-3.14-.16-.444-2.773a6.556 6.556 0 002.821-3.348h-5.882V8.945H21.81z" fill="#518EF8"/><path d="M17.886 19.578a10.999 10.999 0 01-16.575-3.365l3.565-2.918a6.542 6.542 0 009.427 3.35l3.583 2.933z" fill="#28B446"/><path d="M18.021 2.532L14.458 5.45a6.541 6.541 0 00-9.644 3.425L1.231 5.94a11 11 0 0116.79-3.41z" fill="#F14336"/></svg>