<svg width="22" height="21" fill="none" xmlns="http://www.w3.org/2000/svg"><path d="M22 3.314a7.546 7.546 0 01-2.519.77 5.155 5.155 0 001.892-2.656c-.854.562-1.82.93-2.832 1.08a4.383 4.383 0 00-3.282-1.51 4.723 4.723 0 00-4.539 4.887c0 .366.04.731.117 1.09a12.764 12.764 0 01-9.614-5.072 5.12 5.12 0 001.376 6.458 2.764 2.764 0 01-1.981-.55 4.672 4.672 0 003.5 4.774 3.312 3.312 0 01-1.889.153 4.368 4.368 0 004.056 3.32A7.113 7.113 0 010 18.087a12.906 12.906 0 007.1 2.162c7.322 0 13.009-6.39 12.7-14.274V5.95v-.06-.075a8.183 8.183 0 002.2-2.5z" fill="#38A1F3"/></svg>